<svg xmlns="http://www.w3.org/2000/svg">
  <symbol id="logo" viewBox="0 0 114 68"><path d="M74 60.3s-3.8-2.8-6.3 0c0 0-.4.8.5.8.1-.1 2.7-3.1 5.4-.3.1.2 2.9 3-1.4 5.9l-1.1.3-1.1.1.1-.1-1.9-.3-1.8-.4-.4-.2-.1-.1-.3-.1-.3-.1-.4-.1-.2-.1-.8-.3-.5-.2-.4-.2-.3-.1-.3-.1-1.5-.6-.2-.1-.6-.2-.3-.1-.5-.2-.3-.1-.6-.3h-.1l-.8-.3-.7-.3-.2-.1-.5-.2-.2-.1-.5-.2-.2-.1-.6-.2-.5-.2c.1-.2-8.1-3.9-11.8-1.6a4.6 4.6 0 0 0-1.3 7s3.8 2.8 6.3 0c0 0 .4-.8-.5-.8-.1.1-2.7 3.1-5.4.3-.1-.2-2.9-3 1.4-5.9l1.2-.3 1.2-.1-.2.1 1.8.3 1.8.4.4.2h.1l.4.2.2.1 2.2.9.3.1.3.1.5.2.3.1.7.3.2.1.6.2.2.1.6.2.2.1.6.2.2.1.7.3.1.1.6.2.2.1.5.2.2.1.5.2.1.1.6.2.4.2c-.1.2 8.1 3.9 11.8 1.6a4.6 4.6 0 0 0 1.8-6.3c.2-.3 0-.5-.1-.7zM46.8 46.9c.4 0 .8 0 1.1-.2.2 0 .3-.1.4-.3V32.3l.2-.2h4.4c1.1.1 2.1-.3 2.9-.9.7-.7 1.1-1.6 1.1-2.6v-9.3c0-2.5-1.2-3.7-3.5-3.7h-7.5c-.3 0-.5.1-.5.4v30.5c0 .2.2.3.4.3l1 .1zm1.5-17.4V18c0-.1.1-.2.3-.2h3.7c.4 0 .9.1 1.2.4.3.3.4.6.4 1V28c0 .5-.1.9-.4 1.3-.3.3-.7.5-1.2.5h-3.8c-.1 0-.2-.1-.2-.3zM39 46.7l1.1.2c.4 0 .7 0 1.1-.2.2 0 .3-.2.4-.4V16.1a.9.9 0 0 0-.6-.6c-1-.3-2.1-.3-3.1 0-.3.1-.5.2-.7.5L33 31.4 28.6 16c-.1-.3-.4-.4-.7-.5l-1.6-.2-1.6.2c-.3 0-.6.3-.7.6v30.2c0 .2.2.3.4.4l1.1.2c.4 0 .8 0 1.2-.2.2 0 .3-.1.4-.3V22.7l2 7.2.7 2.7.6 2.4.5 1.7.2.7.5.4 1.2.2c.4 0 .8 0 1.1-.2l.4-.4.2-.7.5-1.7.6-2.4.7-2.7 2-7.2.1-.1v23.8l.6.3zm-19.2-.3V15.8c0-.2-.2-.3-.4-.3l-1.2-.2c-.4 0-.8 0-1.1.2-.2 0-.3.2-.3.3v30.7c0 .3.5.4 1.5.4s1.5-.2 1.5-.5zm-9.3-24.7l1.1.2c1 0 1.5-.2 1.5-.5v-2.2c.1-1.1-.3-2.1-1-2.8a5 5 0 0 0-3.1-.9H5.8c-1.1-.1-2.2.2-3.1.9-.8.8-1.1 1.8-1 2.9v4.8c0 .8.2 1.5.6 2.2.5.8 1 1.5 1.6 2.1l2 2.1a38.7 38.7 0 0 1 3.6 4.2c.4.7.6 1.4.6 2.2v5.8c0 .4-.1.9-.4 1.2-.3.3-.7.5-1.1.5H6.1c-.4 0-.9-.1-1.2-.4-.3-.3-.4-.6-.4-1v-2.2c0-.4-.5-.5-1.4-.5-.4 0-.8 0-1.1.2l-.3.3V43c-.1 1 .3 2 1 2.8.9.6 2 1 3.1.9h3.1c1.1.1 2.2-.2 3.1-.9.8-.8 1.1-1.8 1-2.9V37a8.1 8.1 0 0 0-2.2-5.6l-2-2.1-2-1.9-1.6-1.9c-.4-.7-.6-1.5-.6-2.3v-3.8c0-.4.1-.9.4-1.2.3-.3.7-.5 1.1-.5h2.5c.4 0 .9.1 1.2.4.2.3.4.7.4 1v2.2c0 .3.1.4.3.4zm52.2-6.3l-1.1-.2c-.4 0-.8 0-1.1.2-.2 0-.3.1-.4.3v30.5c0 .2.1.4.3.4h8.3c.3 0 .5-.4.5-1.1 0-.8-.2-1.2-.5-1.2h-5.4c-.2 0-.2-.1-.2-.3V15.8c0-.2-.2-.3-.4-.4zm36.8.1c-.3 0-.5.4-.5 1.2 0 .7.2 1.1.6 1.1h4.3l.3.2v28.5l.5.3.9.1.9-.1c.2 0 .5-.1.6-.4V18.1l.2-.3h4.5c.2 0 .3-.2.4-.3l.1-.8-.1-.8c0-.2-.2-.3-.4-.3H99.5zM85.6 46.9l1.2-.1.3-.3.1-1 .3-2.1.3-2.1.1-1c0-.2.2-.3.4-.3h4.8c.2 0 .3.1.3.3l.1 1.1a52.8 52.8 0 0 1 .7 5.2l.3.2c.8.2 1.5.2 2.3 0l.3-.2-.1-1.3-.4-3.3-.5-4.7-.6-5.4-.6-5.4-.5-4.7-.4-3.4-.2-1.4c-.1-.5-.3-.9-.7-1.2-.7-.4-1.5-.6-2.3-.5-.8-.1-1.5.1-2.2.5a2 2 0 0 0-.7 1.3l-.2 1.4-.4 3.4-.6 4.7L86 32l-.6 5.4-.6 4.7-.4 3.3-.1 1.3c0 .1 0 .2.2.2h1.1zm2.8-10.8l.4-2.7.5-3.7.5-3.9.5-3.5.3-2.5.1-.3.1.3.3 2.5.4 3.5.5 3.9.5 3.7.4 2.7.1 1.1c.1.3 0 .4-.3.4h-4.1c-.2 0-.3-.1-.3-.4l.1-1.1zM75.5 18l.2-.3h5.6c.2 0 .3-.2.4-.4l.1-.8-.1-.8c0-.2-.2-.3-.4-.3H73c-.2 0-.4.1-.4.3v30.5c0 .2.1.3.3.3h8.5l.3-.2c.1-.3.2-.6.1-.9l-.1-.9-.4-.2h-5.5c-.2 0-.3-.1-.3-.2V32.3l.2-.4h5l.4-.2.2-1c0-.3 0-.7-.2-1l-.3-.2h-5a.2.2 0 0 1-.2-.2V18zM0 53h114v1H0zM60.7 9C66.5 6.9 66-.1 66-.2 57 .1 56.3 7 56.3 9h-.5c-.2-1.7-1.2-6.5-7.5-6.4-.1 2.6 1.1 5 3.1 6.4H0v1h114V9H60.7z"/></symbol>
  <symbol id="basket" viewBox="0 0 25.4 24"><path fill-rule="evenodd" d="M23.6 14.3a1.3 1.3 0 0 1-1.2 1H7l.3 1.8h15a.6.6 0 0 1 0 1.3h-15a1.3 1.3 0 0 1-1.2-1l-3-15L.4 1.2A.6.6 0 0 1 0 .4.6.6 0 0 1 1 0l2.7 1.2a1.3 1.3 0 0 1 .7.9l.4 2h19.4a1.2 1.2 0 0 1 1 .4 1.3 1.3 0 0 1 .3 1zM5 5.4L6.7 14h15.7l1.7-8.6H5zm14 3.3h-9a.6.6 0 0 1 0-1.3h9a.6.6 0 0 1 0 1.3zm-8.4 2h8a.6.6 0 0 1 0 1.3h-8a.6.6 0 0 1 0-1.3zm0 8.7a2.3 2.3 0 1 1-2.2 2.3 2.3 2.3 0 0 1 2.2-2.3zm0 3.3a1 1 0 1 0-1-1 1 1 0 0 0 1 1zm7.9-3.3a2.3 2.3 0 1 1-2.3 2.3 2.3 2.3 0 0 1 2.3-2.3zm0 3.3a1 1 0 1 0-1-1 1 1 0 0 0 1 1z"/></symbol>
  <symbol id="user" viewBox="0 0 20.5 24"><path fill-rule="evenodd" d="M20.3 21.3a.7.7 0 0 1-.3.3 21.1 21.1 0 0 1-19.5 0 .7.7 0 0 1-.2-.3 7.6 7.6 0 0 1-.3-2.2.5.5 0 0 0 0-.2c0-1 .1-3.3 2.3-4A14.3 14.3 0 0 0 6.5 13a.7.7 0 0 1 .7 1.1 15.8 15.8 0 0 1-4.5 2c-1.2.5-1.3 1.7-1.3 2.9a8.5 8.5 0 0 0 0 1.6 20 20 0 0 0 17.6 0 9.5 9.5 0 0 0 .1-1.5.5.5 0 0 1 0-.1c0-1.2-.1-2.4-1.3-2.8a15.7 15.7 0 0 1-4.5-2.1.7.7 0 0 1-.2-1 .7.7 0 0 1 1 0 14.3 14.3 0 0 0 4 1.8.4.4 0 0 1 .1 0c2.2.7 2.2 3 2.3 4v.1a8.1 8.1 0 0 1-.3 2.3zm-10-8.4h-.1a4.6 4.6 0 0 1-3.5-1.5C4.7 9.3 5 5.6 5 5.2A5 5 0 0 1 7.5.7a5.6 5.6 0 0 1 2.7-.7h.1a5.5 5.5 0 0 1 2.7.7 5 5 0 0 1 2.4 4.5c0 .4.4 4-1.6 6.2a4.6 4.6 0 0 1-3.5 1.5zm3.8-7.6c-.2-3.4-2.5-4-3.8-4-1.2 0-3.7.4-3.9 4 0 0-.3 3.5 1.2 5.2a3.3 3.3 0 0 0 2.6 1 3.2 3.2 0 0 0 2.6-1c1.6-1.8 1.3-5.1 1.3-5.2z"/></symbol>
  <symbol id="info" viewBox="0 0 22 22"><path fill-rule="evenodd" d="M11 0a11 11 0 1 0 11 11A11 11 0 0 0 11 0zm0 20a9 9 0 1 1 9-9 9 9 0 0 1-9 9zm.7-5.7a.3.3 0 0 0-.2-.1l-.2-.1a1 1 0 0 0-1.1.2.5.5 0 0 0-.2.3 2.3 2.3 0 0 0-.1.4 1 1 0 0 0 1 1 1 1 0 0 0 .8-.3.5.5 0 0 0 .2-.3l.1-.4a.6.6 0 0 0-.1-.4l-.2-.3zM11 6a1 1 0 0 0-1 1v4a1 1 0 0 0 2 0V7a1 1 0 0 0-1-1z"/></symbol>
  <symbol id="why1" viewBox="0 0 81.4 71.8"><path fill="#fff" fill-rule="evenodd" d="M80.5 34.2a3.3 3.3 0 0 0-2.3-1h-.3a13.8 13.8 0 0 0-6.4-19.6 13.7 13.7 0 0 0-27.5 0 3.6 3.6 0 0 0-.8-.1A3.8 3.8 0 0 0 40 15l-.4.5a1 1 0 0 1-1.2.3l-.6-.2a3.7 3.7 0 0 0-3.4.1 3.8 3.8 0 0 0-1.9 3v.6a3.4 3.4 0 0 1-.3.8 1 1 0 0 1-.5-.9l-.1-.5a3.7 3.7 0 0 0-1.6-2.8l4.3-6.1a5.5 5.5 0 1 0-9-6.4l-7.9 11.3A5.5 5.5 0 0 0 17 16a.7.7 0 0 1-.4 0l-.6-.3a3.7 3.7 0 0 0-3.4.1 3.8 3.8 0 0 0-1.9 3v.6a1 1 0 0 1-1 .9H9a3.8 3.8 0 0 0-2.9 2 3.8 3.8 0 0 0-.1 3.4l.2.5a1 1 0 0 1-.3 1.3l-.5.3A3.8 3.8 0 0 0 3.8 31a3.8 3.8 0 0 0 .8 2.3H3.3a3.3 3.3 0 0 0-2.4 1 3.3 3.3 0 0 0-.9 2.5c.8 12 8.5 18.1 19.7 23.5a6.4 6.4 0 0 1 3 2.8 4.2 4.2 0 0 1-.3 4 3.1 3.1 0 0 0 0 3.2 3 3 0 0 0 2.6 1.6h31.4a3 3 0 0 0 2.7-1.6 3.1 3.1 0 0 0 0-3.1 4.2 4.2 0 0 1-.3-4 6.4 6.4 0 0 1 3-2.9c11.1-5.4 18.8-11.4 19.6-23.5a3.3 3.3 0 0 0-.9-2.5zm-3.5-8a11 11 0 0 1-2.4 7h-7.2v-5.6a1.4 1.4 0 1 0-2.8 0v5.6h-4.8a3.3 3.3 0 0 0 .3-.5 3.6 3.6 0 0 0 .3-.8v-.2a3.8 3.8 0 0 0 .1-.8 3.8 3.8 0 0 0-1.6-3l-.3-.3h.3a8.2 8.2 0 0 0 1.3-.2 7.6 7.6 0 0 0 1.3-.3l.4-.1 1.2-.4.3-.2a12.2 12.2 0 0 0 1.8-1l.5-.3a43.4 43.4 0 0 0 1-.8l.5-.4c0-.2.2-.3.4-.4l.4-.5a10.9 10.9 0 0 0 .8-1l.2-.3.5-.7.2-.3.4-.8.1-.3.4-.8v-.2a13.9 13.9 0 0 0 .6-2 11 11 0 0 1 5.8 9.7zM57.8 2.9a11 11 0 0 1 11 11v.6a11 11 0 0 1-1.1 4.1l-.5.9-.5.8v.2a12.2 12.2 0 0 1-.7.8l-.5.5-.3.2a10.8 10.8 0 0 1-.7.7l-.6.4-.3.2c-.2 0-.3.2-.5.3l-.4.2-.5.2-.4.2-.5.2-.5.1-.5.2h-.5a4.6 4.6 0 0 1-.5.2h-.6a3.7 3.7 0 0 0 0-.8v-.2a3.6 3.6 0 0 0-.1-.6 2.3 2.3 0 0 0-.1-.2 3.7 3.7 0 0 0-3.2-2.7h-.6a1 1 0 0 1-.9-.6l3-3a1.4 1.4 0 1 0-2-1.9l-2 2a3.7 3.7 0 0 0-1-1 3.6 3.6 0 0 0-.8-.3 1.6 1.6 0 0 0-.4 0 4.3 4.3 0 0 0-.6-.2 3.7 3.7 0 0 0-.5 0l-.3.1a3.5 3.5 0 0 0-.8.3l-.6.2a1 1 0 0 1-.4.1 1 1 0 0 1-.4-.1A11 11 0 0 1 57.8 2.8zM35.3 19.6V19a1 1 0 0 1 .6-.8 1 1 0 0 1 .9 0l.5.2a3.8 3.8 0 0 0 4.7-1.2l.3-.5a1 1 0 0 1 1.7 0l.3.5a3.7 3.7 0 0 0 3 1.6 2.8 2.8 0 0 0 .5 0 1 1 0 0 0 .3-.1h.3a4.1 4.1 0 0 0 .6-.3l.5-.2a1 1 0 0 1 1 0 1 1 0 0 1 .5.8v.6a3.8 3.8 0 0 0 3.4 3.4h.6a1 1 0 0 1 .8.6 1 1 0 0 1 0 1l-.2.5a3.8 3.8 0 0 0 .2 3.4l.2.4a2 2 0 0 0 .2.2 2.7 2.7 0 0 0 .2.3 3 3 0 0 0 .4.3l.5.4a1 1 0 0 1 0 1.7l-.5.3a3.8 3.8 0 0 0-.5.4l-.1.2a3.6 3.6 0 0 0-.3.3v.2H37.7a3.4 3.4 0 0 0 .3-.5 4 4 0 0 0 .3-.8v-.2a3.8 3.8 0 0 0 .1-.8 3.8 3.8 0 0 0 0-.5 3.5 3.5 0 0 0-.1-.4 4.2 4.2 0 0 0-1.5-2.2l-.5-.3a1 1 0 0 1-.3-1.3l.2-.5a3.6 3.6 0 0 0 .3-.8v-.3a3.8 3.8 0 0 0 0-.6v-.3a3.9 3.9 0 0 0 0-.5l-.1-.4-.1-.2-.1-.2-.1-.2a3.5 3.5 0 0 0-.3-.3 3.3 3.3 0 0 0-.2-.3 3.6 3.6 0 0 0-.5-.5 1.8 1.8 0 0 0-.2-.2 5.9 5.9 0 0 0 .3-1.3zM27.7 5.1a2.8 2.8 0 0 1 4.5 3.2l-5.4 7.6-2.5 3.7a2.7 2.7 0 0 1-3.9.6 3 3 0 0 1-.5-.5l-.1-.1a2.7 2.7 0 0 1-.3-.6 2.7 2.7 0 0 1-.2-.7V18a2.7 2.7 0 0 1 0-.7 2.8 2.8 0 0 1 .5-1zM7.5 32l-.5-.3A1 1 0 0 1 7 30l.5-.4a3.8 3.8 0 0 0 1.2-4.6l-.2-.6a1 1 0 0 1 .8-1.4h.6a3.8 3.8 0 0 0 3.4-3.5V19a1 1 0 0 1 1.5-.8l.5.2a3.6 3.6 0 0 0 1.3.3v.2l.1.5a5 5 0 0 0 .2.5 5.9 5.9 0 0 0 .2.6l.2.4a5.5 5.5 0 0 0 .5.6l.2.2a5.7 5.7 0 0 0 .8.8 5 5 0 0 0 .9.5h.3l.6.3h.3l.8.2a2.4 2.4 0 0 1 .2 0 6.2 6.2 0 0 0 1 0 5.5 5.5 0 0 0 3.6-2.4l2-2.8a1 1 0 0 1 .5.7v.6a3.8 3.8 0 0 0 3.4 3.4h.6a1 1 0 0 1 .4.2 1 1 0 0 1 .1 0 1 1 0 0 1 .2.3l.1.1a1 1 0 0 1 .1.4 1 1 0 0 1 0 .5l-.3.6a3.8 3.8 0 0 0-.3 1.9 3.8 3.8 0 0 0 1.5 2.7l.4.3h.1a1 1 0 0 1 .3 1.4 1.2 1.2 0 0 1 0 .1 1 1 0 0 1-.3.3l-.5.3a4 4 0 0 0-.5.5l-.1.1a4.5 4.5 0 0 0-.3.4H8.4a4 4 0 0 0-1-1zm53 25.6a9.2 9.2 0 0 0-4.1 4 7 7 0 0 0 .3 6.8.4.4 0 0 1 0 .4.4.4 0 0 1-.3.2H25a.4.4 0 0 1-.3-.2.4.4 0 0 1 0-.4 7 7 0 0 0 .4-6.7 9.2 9.2 0 0 0-4.2-4C10.2 52.5 3.5 47.2 2.8 36.4a.5.5 0 0 1 .1-.4.5.5 0 0 1 .4-.2h74.9a.5.5 0 0 1 .3.2.5.5 0 0 1 .2.4c-.8 10.8-7.5 16.1-18.2 21.2zM51 59.4h-12a1.4 1.4 0 0 0 0 2.8h12a1.4 1.4 0 0 0 0-2.8zm-20.6 2.8h4.6a1.4 1.4 0 0 0 0-2.8h-4.6a1.4 1.4 0 0 0 0 2.8zm20.6 1.4H30.3a1.4 1.4 0 0 0 0 2.7h20.6a1.4 1.4 0 0 0 0-2.7zm4-50.8a1.4 1.4 0 1 0 1.9-2L52.9 7a1.4 1.4 0 1 0-2 2zm7.7 7.9a1.4 1.4 0 0 0 2 0 1.4 1.4 0 0 0 0-2l-4-3.9a1.4 1.4 0 1 0-1.9 2zm-2.9-7.5a1.4 1.4 0 0 0 1-.4L64.6 9a1.4 1.4 0 1 0-2-2l-3.9 4a1.4 1.4 0 0 0 1 2.4zM67.4 25a1.4 1.4 0 0 0 1.4 1.4h5.5a1.4 1.4 0 0 0 0-2.8h-5.5a1.4 1.4 0 0 0-1.4 1.4zm-25.5.7a1.4 1.4 0 0 0 1-.4l2-2.1a1.4 1.4 0 0 0 0-2 1.4 1.4 0 0 0-1.9 0l-2 2.1a1.4 1.4 0 0 0 0 2 1.4 1.4 0 0 0 1 .4zm6.6 3a1.4 1.4 0 1 0 2-2L49 25.4a1.4 1.4 0 1 0-2 2zM43 28l-1.3 1.4a1.4 1.4 0 0 0 0 2 1.4 1.4 0 0 0 2 0L45 30a1.4 1.4 0 0 0 0-2 1.4 1.4 0 0 0-2 0z"/></symbol>
  <symbol id="why2" viewBox="0 0 75.1 75.1"><path fill="#fff" fill-rule="evenodd" d="M65.3 53l-7 10.1-5-4a1.3 1.3 0 0 0-1.5 2l6 4.8a1.2 1.2 0 0 0 .7.3h.2a1.3 1.3 0 0 0 .9-.5l7.7-11.2a1.3 1.3 0 0 0-2-1.4zM38.8 32.6V20a1.3 1.3 0 0 0-2.5 0v12.6a5 5 0 0 0-3.6 3.8h-9a1.3 1.3 0 1 0 0 2.5h9a5 5 0 1 0 6-6.3zM37.5 40a2.5 2.5 0 1 1 2.5-2.5 2.5 2.5 0 0 1-2.5 2.5zm0-27.5a1.3 1.3 0 0 0 1.3-1.3V9.8a1.3 1.3 0 0 0-2.5 0v1.3a1.3 1.3 0 0 0 1.2 1.3zm0 50a1.3 1.3 0 0 0-1.2 1.2V65a1.3 1.3 0 0 0 2.5 0v-1.3a1.3 1.3 0 0 0-1.3-1.2zm26.3-23.8h1.3a1.3 1.3 0 1 0 0-2.5h-1.3a1.3 1.3 0 1 0 0 2.5zm-52.5-2.5H10a1.3 1.3 0 1 0 0 2.5h1.3a1.3 1.3 0 1 0 0-2.5zm44.8-16a1.2 1.2 0 0 0 .9-.4l.9-.9A1.3 1.3 0 1 0 56 17l-.9 1a1.3 1.3 0 0 0 0 1.7 1.2 1.2 0 0 0 1 .3zm-38 35l-1 .9a1.2 1.2 0 0 0 0 1.7 1.2 1.2 0 0 0 1.9 0l.8-.9a1.3 1.3 0 1 0-1.7-1.7zm.9-38a1.3 1.3 0 0 0-1.8 1.7l.9.9a1.2 1.2 0 0 0 1.7 0 1.3 1.3 0 0 0 0-1.8zm56 20.4a37.5 37.5 0 1 0-24.5 35.2 16.2 16.2 0 0 0 22.3-22.2 37.4 37.4 0 0 0 2.3-13zM48 71a35 35 0 1 1 23-23l-.3-.3-.7-.7-.6-.5a9.8 9.8 0 0 0-1.3-1l-.6-.4-.8-.5-.6-.3-.8-.4-.8-.3-.7-.3-1-.2-.6-.2-1.2-.2a4.7 4.7 0 0 0-.5 0 16 16 0 0 0-1.7-.2 16.2 16.2 0 0 0-16.2 18l.1.5.2 1.2.2.6.2 1 .3.7.3.8.4.8.3.6a15.4 15.4 0 0 0 2.5 3.3l.6.6.3.4zm10.8 1.6a13.7 13.7 0 0 1-7.5-2.3 13.4 13.4 0 0 1-1.3-1l-.3-.2-.9-.8c0-.2-.2-.3-.3-.4a16.7 16.7 0 0 1-1-1.3l-.7-1.1-.2-.3a12 12 0 0 1-.5-1.2l-.2-.5-.3-1-.2-.6-.2-1v-.5a14.1 14.1 0 0 1-.2-1.6A13.8 13.8 0 0 1 58.8 45a12 12 0 0 1 1.6.1 4 4 0 0 1 .5.1 9.9 9.9 0 0 1 1 .2 9.6 9.6 0 0 1 1.6.5c.2 0 .3 0 .5.2a11 11 0 0 1 1.2.5l.3.2a13.1 13.1 0 0 1 1.1.7l.5.3.8.7.4.3.8 1 .2.1a13.1 13.1 0 0 1 1 1.4 13.6 13.6 0 0 1 2.3 7.5 13.8 13.8 0 0 1-13.8 13.8z"/></symbol>
  <symbol id="why3" viewBox="0 0 83.1 82.9"><path fill="#fff" fill-rule="evenodd" d="M43.4 38a28.9 28.9 0 0 0-21.8 0 1.4 1.4 0 0 0 1 2.6 26.1 26.1 0 0 1 19.8 0 1.4 1.4 0 0 0 .5.1 1.4 1.4 0 0 0 .5-2.7zm38.3 11.7H77c-2.4-5.1-5.8-8.2-10.2-9.3l2.4-8.3a1.4 1.4 0 0 0-2.1-1.5L56.9 37c-6.7-5.4-17.3-6.6-25.2-6.6A42.1 42.1 0 0 0 15 33.7a8 8 0 0 0-4.6-4c-3.3-1.4-7.5-1.6-9.6-.5a1.4 1.4 0 0 0-.8 1.2c0 2.2 0 6.9 4.2 6.9a1.4 1.4 0 1 0 0-2.8c-1 0-1.3-.8-1.4-3.1a13 13 0 0 1 6.5.8 5.3 5.3 0 0 1 3.2 2.7C4.9 39 0 45.3 0 52.5a17 17 0 0 0 4.3 11.7l4 17.6a1.4 1.4 0 0 0 1.4 1h12.5a1.4 1.4 0 0 0 1.3-1.3v-5a38.1 38.1 0 0 0 18.8 1l3.7 4.8a1.4 1.4 0 0 0 1 .6h9.8a1.4 1.4 0 0 0 1.3-1.4v-7c14.6-2.1 25-9.5 25-17.9v-5.5a1.4 1.4 0 0 0-1.4-1.4zm-1.4 7c0 7-10.1 13.5-23.7 15.1a1.4 1.4 0 0 0-1.2 1.4v6.9h-7.6l-3.8-5a1.4 1.4 0 0 0-1.4-.5 35.3 35.3 0 0 1-20-1.3 1.4 1.4 0 0 0-1.8 1.3V80h-10l-4-16.9a1.3 1.3 0 0 0-.2-.6 14.2 14.2 0 0 1-3.8-10.1c0-10.7 13-19.3 28.9-19.3 11 0 19.5 2.3 24.1 6.5a1.4 1.4 0 0 0 1.7.1l8-5-1.8 6.3a1.4 1.4 0 0 0 1.2 1.7c4.5.7 7.6 3.5 10 8.9a1.4 1.4 0 0 0 1.2.8h4.2v4.1zm-13-9.5a1.4 1.4 0 1 0-1.7 2.2 1.4 1.4 0 0 0 .9.3 1.4 1.4 0 0 0 .8-2.5zM32 12.5a1.4 1.4 0 0 0-.2 0c-1.7-.1-2.6-.8-2.6-1.4 0-.6.8-1.4 2.5-1.4 2.4 0 3 .6 3.1.8a1.4 1.4 0 0 0 2 .3 1.4 1.4 0 0 0 .2-2A5.3 5.3 0 0 0 33.2 7a1.4 1.4 0 0 0-2.7 0c-2.6.6-4 2.3-4 4 0 2 1.6 4 5.2 4.2 2.3.4 3 1.3 3 1.6-.1.4-1 1.1-2.9 1.2-2 0-2.5-.3-3.1-1a1.4 1.4 0 1 0-2 2 5.3 5.3 0 0 0 3.8 1.7 1.4 1.4 0 0 0 2.7 0v-.1c2.4-.4 4-1.8 4.2-3.6 0-.8-.1-3.6-5.3-4.5zM31.8 0a13.8 13.8 0 1 0 13.9 13.8A13.8 13.8 0 0 0 31.8 0zm0 24.9a11 11 0 1 1 11.1-11 11 11 0 0 1-11 11z"/></symbol>
  <symbol id="why4" viewBox="0 0 82.7 76.4"><path fill="#fff" fill-rule="evenodd" d="M82.6 22.8C81.4 9.6 72 0 60.2 0a22.3 22.3 0 0 0-19 11A21.5 21.5 0 0 0 22.4 0C10.8 0 1.4 9.6.2 22.8a23.4 23.4 0 0 0 .7 8.6 37 37 0 0 0 11.4 19l28.8 26 29.3-26a37 37 0 0 0 11.5-19 23.4 23.4 0 0 0 .7-8.6zm-3.8 8A33.9 33.9 0 0 1 68.3 48L41 72l-26.7-24A34 34 0 0 1 4 30.7a20.4 20.4 0 0 1-.7-7.4V23c1-11.5 9.1-20 19.2-20 7.5 0 14 4.6 17.2 12l1.4 3.4 1.5-3.5A19.2 19.2 0 0 1 60.2 3.2c10.1 0 18.2 8.4 19.2 20a20.4 20.4 0 0 1-.6 7.5zM25.5 9.5a15.9 15.9 0 0 0-16 15.8 1.6 1.6 0 0 0 3.2 0 12.7 12.7 0 0 1 12.8-12.6 1.6 1.6 0 1 0 0-3.2z"/></symbol>
  <symbol id="why5" viewBox="0 0 89.4 89.4"><path fill="#fff" fill-rule="evenodd" d="M76.3 13a44.7 44.7 0 0 0-51.7-8.2 45 45 0 0 0-12.7 9.5l.8-4.6a1.4 1.4 0 1 0-2.9-.5l-1.5 9.3a1.4 1.4 0 0 0 .4 1.3 1.4 1.4 0 0 0 1 .4 2 2 0 0 0 .2 0l9.3-1.6a1.4 1.4 0 1 0-.5-2.8l-5 .8A42 42 0 0 1 26 7.4a41.8 41.8 0 0 1 60.6 37.3 42 42 0 0 1-4.7 19.4 1.4 1.4 0 0 0 .6 2 1.3 1.3 0 0 0 .6.1 1.4 1.4 0 0 0 1.3-.7 44.8 44.8 0 0 0-8-52.4zm4.5 56.6a1.5 1.5 0 0 0-1.3-.4l-9.3 1.6a1.4 1.4 0 0 0 .5 2.8l5-.8a41.8 41.8 0 0 1-68-47.5A1.4 1.4 0 0 0 5 23.9a44.7 44.7 0 0 0 72.4 51.2l-.7 4.6a1.4 1.4 0 0 0 1.2 1.7 1 1 0 0 0 .2 0 1.4 1.4 0 0 0 1.4-1.2l1.6-9.3a1.4 1.4 0 0 0-.4-1.3zm-20-29.9a2.2 2.2 0 0 0-2-1H48.5l7-18.2a1.5 1.5 0 0 0-.2-1.3 1.4 1.4 0 0 0-1.2-.7H38.5a1.5 1.5 0 0 0-1.4 1.2l-6 26.8a2.2 2.2 0 0 0 2.2 2.7h9.8L40 74a1.5 1.5 0 0 0 1 1.6 1.6 1.6 0 0 0 .5 0 1.5 1.5 0 0 0 1.3-.7l18-32.9a2.2 2.2 0 0 0-.1-2.2zM43.9 66.8L46.2 48a1.5 1.5 0 0 0-.4-1.2 1.5 1.5 0 0 0-1-.5H34.1l5.5-24.9h12.2l-7 18.1a1.5 1.5 0 0 0 .2 1.4 1.5 1.5 0 0 0 1.2.6h11.4z"/></symbol>
  <symbol id="why6" viewBox="0 0 112.3 76.6"><path fill="#fff" fill-rule="evenodd" d="M78.2 20.5a1.8 1.8 0 0 0-.4 2.5 25 25 0 1 1-4.7-4.7 1.8 1.8 0 0 0 2.2-2.9 28.4 28.4 0 0 0-17.4-5.8 28.7 28.7 0 1 0 22.8 11.3 1.8 1.8 0 0 0-2.5-.4zM57.9 0a38.3 38.3 0 1 0 38.2 38.3A38.3 38.3 0 0 0 58 0zm0 73a34.7 34.7 0 1 1 34.6-34.7A34.7 34.7 0 0 1 58 73zM16.1 0a1.8 1.8 0 0 0-1.8 1.8v15h-3.5v-15a1.8 1.8 0 0 0-3.6 0v15H3.6v-15a1.8 1.8 0 0 0-3.6 0v21.5a9 9 0 0 0 7.2 8.8v42.7a1.8 1.8 0 0 0 3.6 0V32a9 9 0 0 0 7.1-8.8V1.8A1.8 1.8 0 0 0 16.1 0zM9 28.7a5.4 5.4 0 0 1-5.4-5.4v-3h10.7v3A5.4 5.4 0 0 1 9 28.7zM110.4 0a9 9 0 0 0-9 9v32.9a1.8 1.8 0 0 0 1.9 1.8h5.3v31a1.8 1.8 0 0 0 3.6 0v-73a1.8 1.8 0 0 0-1.8-1.7zm-1.8 40h-3.5V9a5.4 5.4 0 0 1 3.5-5.1V40z"/></symbol>
  <symbol id="play" viewBox="0 0 30 30"><path fill="#fff" fill-rule="evenodd" d="M22.8 14.6L11.8 7a.5.5 0 0 0-.8.4v15a.5.5 0 0 0 .8.4l11-7.5a.5.5 0 0 0 0-.8zm-10.8 7V8.5l9.6 6.5zM15 0a15 15 0 1 0 15 15A15 15 0 0 0 15 0zm0 29a14 14 0 1 1 14-14 14 14 0 0 1-14 14z"/></symbol>
  <symbol id="fact1" viewBox="0 0 45.5 60"><path fill="#7fcdc7" fill-rule="evenodd" d="M42 22a51 51 0 0 0-7.6-11.7A61.2 61.2 0 0 0 23.3.1a1 1 0 0 0-1.1 0 61.2 61.2 0 0 0-11 10.2A51 51 0 0 0 3.4 22 36.2 36.2 0 0 0 0 37.2a22.8 22.8 0 0 0 45.5 0A36.2 36.2 0 0 0 42 22zM22.7 58A20.8 20.8 0 0 1 2 37.3 34.2 34.2 0 0 1 5.2 23a48.8 48.8 0 0 1 7.4-11.3 61.8 61.8 0 0 1 10.1-9.5A61.4 61.4 0 0 1 33 11.6a49 49 0 0 1 7.3 11.2 34.3 34.3 0 0 1 3.3 14.4 20.8 20.8 0 0 1-20.8 20.9zm17.4-17.5a1 1 0 0 0-1.2.7 16.7 16.7 0 0 1-8.3 10.7 1 1 0 0 0 .4 1.9 1 1 0 0 0 .5-.1 18.7 18.7 0 0 0 9.3-12 1 1 0 0 0-.7-1.2zm1.2-5.4a1 1 0 1 0-2 .1l.1 2a1 1 0 1 0 2 0l-.1-2zM18.6 28a1 1 0 0 0-1 1v5.2h-6.3V29a1 1 0 0 0-2 0v12.4a1 1 0 0 0 2 0v-5.3h6.3v5.3a1 1 0 0 0 2 0V29a1 1 0 0 0-1-1zm17.6 9.2v-4a5.1 5.1 0 0 0-10.3 0v4a5.1 5.1 0 0 0 10.3 0zm-8.3 0v-4a3.2 3.2 0 1 1 6.3 0v4a3.2 3.2 0 1 1-6.3 0zm-4.6 8.3h.5a2.5 2.5 0 1 0 0-5h-1a2 2 0 0 0-2 2 1 1 0 0 0 1.9 0v-.1h1a.6.6 0 0 1 .7.6.6.6 0 0 1-.6.5h-.5a2.5 2.5 0 0 0-2.6 2.6v1.5a1 1 0 0 0 1 1h3.6a1 1 0 0 0 0-2h-2.6v-.5a.6.6 0 0 1 .6-.6z"/></symbol>
  <symbol id="fact2" viewBox="0 0 60 53.4"><path fill="#7fcdc7" fill-rule="evenodd" d="M59.4 25.4a2.4 2.4 0 0 0-1.8-.8h-.2a10.3 10.3 0 0 0-4.7-14.5 10.1 10.1 0 0 0-20.3 0 2.7 2.7 0 0 0-.6 0 2.8 2.8 0 0 0-2.3 1.1l-.2.4a.7.7 0 0 1-1 .2l-.3-.2a2.7 2.7 0 0 0-2.6.1A2.8 2.8 0 0 0 24 14v.5a2.6 2.6 0 0 1-.2.6.8.8 0 0 1-.4-.6v-.5a2.8 2.8 0 0 0-1.2-2l3.2-4.6a4.2 4.2 0 0 0-1-5.7 4 4 0 0 0-5.7 1L13 11a4 4 0 0 0-.5.9.7.7 0 0 1-.3 0l-.4-.3a2.7 2.7 0 0 0-2.5.1A2.8 2.8 0 0 0 7.8 14v.5a.8.8 0 0 1-.7.6h-.4a2.8 2.8 0 0 0-2.2 1.5 2.8 2.8 0 0 0-.1 2.6l.2.4a.8.8 0 0 1-.3.9l-.3.3A2.8 2.8 0 0 0 2.8 23a2.8 2.8 0 0 0 .6 1.6h-1a2.4 2.4 0 0 0-1.8.8 2.5 2.5 0 0 0-.6 1.8c.6 9 6.2 13.5 14.5 17.5a4.8 4.8 0 0 1 2.2 2.1 3.1 3.1 0 0 1-.2 3 2.3 2.3 0 0 0 0 2.4 2.3 2.3 0 0 0 2 1.1h23a2.3 2.3 0 0 0 2-1.1 2.3 2.3 0 0 0 0-2.4 3.1 3.1 0 0 1-.2-3 4.8 4.8 0 0 1 2.2-2c8.3-4 13.9-8.6 14.5-17.6a2.5 2.5 0 0 0-.6-1.8zm-2.6-6a8.3 8.3 0 0 1-1.8 5.2h-5.3v-4a1 1 0 1 0-2 0v4H44a3.8 3.8 0 0 0 .2-.3 3 3 0 0 0 .2-.6v-.2a2.8 2.8 0 0 0 .1-.5 2.8 2.8 0 0 0-1.2-2.3l-.2-.2a2 2 0 0 0 .2 0h.4a5.9 5.9 0 0 0 .6-.2h.3l.7-.2h.2a8.3 8.3 0 0 0 .9-.4h.2l.6-.4.3-.2c.2 0 .3-.2.5-.3l.3-.2.4-.3.3-.2a7.2 7.2 0 0 0 .7-.7l.3-.3.6-.7.2-.3c0-.2.2-.3.3-.5l.1-.3.3-.5.1-.2.3-.6v-.2a10.4 10.4 0 0 0 .5-1.5 8.2 8.2 0 0 1 4.3 7.2zM42.6 2a8.2 8.2 0 0 1 8 8.2v.5a8.3 8.3 0 0 1-.7 3 6.5 6.5 0 0 1-.3.7l-.4.6-.1.1-.4.5a1.6 1.6 0 0 1 0 .1 7 7 0 0 1-.5.4l-.1.2a4.3 4.3 0 0 1-.4.3 2.6 2.6 0 0 1-.2.2l-.4.2-.2.2-.4.2-.3.2-.4.2h-.3l-.3.2-.4.1-.4.1-.3.1h-.4l-.4.1a2.7 2.7 0 0 0 0-.6v-.2a3.2 3.2 0 0 0-.1-.4V17a2.9 2.9 0 0 0-.3-.5 2.8 2.8 0 0 0-2.2-1.4h-.4a.7.7 0 0 1-.6-.5l2.2-2.2a1 1 0 0 0 0-1.4 1 1 0 0 0-1.5 0L39 12.4a2.8 2.8 0 0 0-.8-.7 3 3 0 0 0-.6-.2 1.7 1.7 0 0 0-.3 0 2.4 2.4 0 0 0-.4-.1 2 2 0 0 0-.4 0 .8.8 0 0 0-.2 0 2.7 2.7 0 0 0-.6.2l-.4.2a.6.6 0 0 1-.4 0 .6.6 0 0 1-.3 0 8.3 8.3 0 0 1-.1-1.6 8.2 8.2 0 0 1 8-8.1zM26 14.5v-.4a.7.7 0 0 1 .4-.6.7.7 0 0 1 .7 0l.4.2a2.8 2.8 0 0 0 3.4-1l.3-.3a.8.8 0 0 1 1.2 0l.3.3a2.7 2.7 0 0 0 2.2 1.2h.8a2.3 2.3 0 0 0 .4-.2l.4-.2a.7.7 0 0 1 .7 0 .7.7 0 0 1 .4.6v.4a2.8 2.8 0 0 0 2.5 2.6h.5a.7.7 0 0 1 .5.4.7.7 0 0 1 0 .7l-.1.4a2.8 2.8 0 0 0 .1 2.6 2.5 2.5 0 0 0 .2.3l.1.1a1.7 1.7 0 0 0 .2.2 3.3 3.3 0 0 0 .3.3l.4.2a.7.7 0 0 1 .3.7.7.7 0 0 1-.3.6l-.4.2a2.3 2.3 0 0 0-.4.4 1.5 1.5 0 0 0-.1.1 2.1 2.1 0 0 0-.2.2v.1H27.8a4 4 0 0 0 .3-.3 2.9 2.9 0 0 0 .2-.6 1.3 1.3 0 0 0 0-.2 2.8 2.8 0 0 0 0-.5 2.9 2.9 0 0 0 0-.4 2.7 2.7 0 0 0 0-.3 3.1 3.1 0 0 0-1-1.6l-.5-.3a.8.8 0 0 1-.2-1l.2-.3a2.8 2.8 0 0 0 .2-.6v-.2a2.8 2.8 0 0 0 0-.5v-.2a2.8 2.8 0 0 0 0-.4l-.1-.2v-.3a.8.8 0 0 0-.2 0v-.2a2.4 2.4 0 0 0-.2-.3 2 2 0 0 0-.2-.2 2.7 2.7 0 0 0-.4-.4h-.1a4.3 4.3 0 0 0 .2-1zM20.4 3.8a2 2 0 0 1 2.8-.5 2 2 0 0 1 .5 2.8l-4 5.7-1.8 2.7a2 2 0 0 1-2.8.5 2 2 0 0 1-.4-.4.6.6 0 0 1-.1 0 2.3 2.3 0 0 1-.2-.5 2 2 0 0 1-.2-.5v-.2a2 2 0 0 1 0-.5 2 2 0 0 1 .4-.8zm-14.9 20l-.4-.2a.8.8 0 0 1 0-1.3l.4-.2a2.8 2.8 0 0 0 1-3.5l-.3-.4a.7.7 0 0 1 0-.7.7.7 0 0 1 .6-.4h.5a2.8 2.8 0 0 0 2.5-2.6v-.4a.7.7 0 0 1 .4-.6.7.7 0 0 1 .7 0l.4.2a2.6 2.6 0 0 0 .9.2v.1l.1.4.1.4a4 4 0 0 0 .2.4 3 3 0 0 0 .2.3 3.6 3.6 0 0 0 .3.4l.2.2a4 4 0 0 0 .6.6 4 4 0 0 0 .6.3 1.7 1.7 0 0 0 .2.1 2.8 2.8 0 0 0 .5.2h.2a4.5 4.5 0 0 0 .5.1 1.3 1.3 0 0 0 .2 0h.1a4.2 4.2 0 0 0 .7 0 4 4 0 0 0 2.6-1.7l1.5-2.2a.7.7 0 0 1 .3.6v.4a2.8 2.8 0 0 0 2.6 2.6h.4a.8.8 0 0 1 .3.1h.1a1.4 1.4 0 0 1 .1.2 1 1 0 0 1 .1.1.8.8 0 0 1 .1.3.8.8 0 0 1 0 .4l-.2.4a2.8 2.8 0 0 0-.3 1.4 2.8 2.8 0 0 0 0 .5 2.8 2.8 0 0 0 1.2 1.6l.2.1.1.1a.8.8 0 0 1 .3.7.7.7 0 0 1 0 .3.4.4 0 0 1-.1 0 .7.7 0 0 1-.2.3l-.3.2a2.5 2.5 0 0 0-.4.4h-.1a2.8 2.8 0 0 0-.2.4H6.1a2.8 2.8 0 0 0-.7-.8zm39.1 19a6.8 6.8 0 0 0-3 3 5.2 5.2 0 0 0 .2 5 .3.3 0 0 1 0 .3.3.3 0 0 1-.2.2H18.5a.3.3 0 0 1-.3-.2.3.3 0 0 1 0-.3 5.2 5.2 0 0 0 .3-5 6.8 6.8 0 0 0-3.1-3C7.5 39.2 2.6 35.2 2 27.2a.4.4 0 0 1 .1-.3.3.3 0 0 1 .3-.1h55.2a.3.3 0 0 1 .3 0 .4.4 0 0 1 0 .4c-.4 8-5.4 12-13.3 15.8zm-7.1 1.3h-8.8a1 1 0 0 0 0 2h8.8a1 1 0 0 0 0-2zm-15.2 2h3.4a1 1 0 0 0 0-2h-3.4a1 1 0 0 0 0 2zm15.2 1H22.3a1 1 0 0 0 0 2.1h15.2a1 1 0 0 0 0-2zm3-37.6a1 1 0 0 0 1.4 0 1 1 0 0 0 0-1.4l-3-3a1 1 0 0 0-1.3 0 1 1 0 0 0 0 1.5zm5.7 5.8a1 1 0 0 0 1.4 0 1 1 0 0 0 0-1.4l-2.9-3a1 1 0 0 0-1.4 0 1 1 0 0 0 0 1.5zM44 9.8a1 1 0 0 0 .7-.3l2.9-2.9a1 1 0 0 0 0-1.4 1 1 0 0 0-1.4 0l-3 2.9a1 1 0 0 0 0 1.4 1 1 0 0 0 .8.3zm5.7 8.7a1 1 0 0 0 1 1h4a1 1 0 0 0 0-2h-4a1 1 0 0 0-1 1zm-18.8.5a1 1 0 0 0 .7-.3l1.6-1.6a1 1 0 0 0 0-1.4 1 1 0 0 0-1.5 0l-1.5 1.5a1 1 0 0 0 0 1.5 1 1 0 0 0 .7.3zm4.9 2.2a1 1 0 0 0 1.4 0 1 1 0 0 0 0-1.4l-1-1a1 1 0 0 0-1.4 0 1 1 0 0 0 0 1.4zm-4-.4l-1.1 1a1 1 0 0 0 0 1.5 1 1 0 0 0 1.4 0l1-1a1 1 0 0 0 0-1.5 1 1 0 0 0-1.4 0z"/></symbol>
  <symbol id="fact3" viewBox="0 0 50.2 60"><path fill="#7fcdc7" fill-rule="evenodd" d="M50 18a1 1 0 0 0-.1-.2c-.9-3.7-3.3-5.7-5.2-7.3l-.8-.7a1.3 1.3 0 0 1-.5-1 2 2 0 0 1 .8-1.6h.1a2.8 2.8 0 0 0 .4-.4 1.7 1.7 0 0 0 .2-.2 3.1 3.1 0 0 0 .3-.4V6a3.5 3.5 0 0 0 .3-.6v-.1a3.5 3.5 0 0 0 .1-.8V3.4A3.4 3.4 0 0 0 42.2 0H29.6a3.4 3.4 0 0 0-3.4 3.4v1.1a3.3 3.3 0 0 0 .1.8v.2a3.6 3.6 0 0 0 .3.5v.2a3 3 0 0 0 .4.5 3.8 3.8 0 0 0 .6.6 2 2 0 0 1 1 1.4 1.2 1.2 0 0 1-.4.9 1.9 1.9 0 0 1-.2.2l-.8.7c-.6.5-1.4 1.1-2 1.9l-2.2-2-.8-.6a1.3 1.3 0 0 1-.4-1 2 2 0 0 1 .8-1.6 2.8 2.8 0 0 0 .5-.4 1.9 1.9 0 0 0 .1-.2 3.3 3.3 0 0 0 .3-.4l.1-.2a3.5 3.5 0 0 0 .2-.6 1.6 1.6 0 0 0 0-.1 3.4 3.4 0 0 0 .1-.8V3.4A3.4 3.4 0 0 0 20.5 0H8a3.4 3.4 0 0 0-3.4 3.4v1.1a3.3 3.3 0 0 0 0 .8l.1.2A3.4 3.4 0 0 0 5 6l.1.2a3 3 0 0 0 .3.5h.1a3.9 3.9 0 0 0 .6.6 2 2 0 0 1 .9 1.4 1.2 1.2 0 0 1-.3.9 2 2 0 0 1-.2.2l-.8.7C3.2 12.5 0 15 0 20.4v34.2A5.4 5.4 0 0 0 5.5 60H23a5.4 5.4 0 0 0 2.1-.4 5.2 5.2 0 0 0 2 .4h17.6a5.4 5.4 0 0 0 5.5-5.4V20.4a12 12 0 0 0-.1-1.5 1.1 1.1 0 0 0 0-.8zM48 29.5h-3.5a1.1 1.1 0 1 0 0 2.3H48v5.7h-5.7a1.1 1.1 0 1 0 0 2.2h5.7V42h-3.5a1.1 1.1 0 1 0 0 2.2H48v2.3H37.6V27.2h10.3v2.2zm-19.4-26a1.1 1.1 0 0 1 1.1-1.1h12.6a1.1 1.1 0 0 1 1.1 1.1v1.1a1 1 0 0 1-.1.5v.1a1.2 1.2 0 0 1-.3.3 1.1 1.1 0 0 1-.7.3H29.6a1.1 1.1 0 0 1-.7-.3.7.7 0 0 1-.1-.1 1.3 1.3 0 0 1-.2-.3 1.1 1.1 0 0 1-.1-.5V3.4zm-2 10.7l2.2-1.9.8-.7a5.1 5.1 0 0 0 .5-.4 3.4 3.4 0 0 0 .8-2.7 4 4 0 0 0-.1-.5h10.5a4.1 4.1 0 0 0 0 .7 3.6 3.6 0 0 0 1.1 2.9l1 .7c1.6 1.4 3.5 3 4.2 5.7a13.7 13.7 0 0 1-8.4.7 36.3 36.3 0 0 1-3.5-1.1 18.3 18.3 0 0 0-8-1.6l-.2-.4a10.8 10.8 0 0 0-.8-1.4zM6.9 3.4A1.1 1.1 0 0 1 8 2.3h12.5a1.1 1.1 0 0 1 1.2 1.1v1.1a1 1 0 0 1-.2.5v.1a1.2 1.2 0 0 1-.3.3 1.2 1.2 0 0 1-.7.3H8a1.1 1.1 0 0 1-.7-.3.7.7 0 0 1-.2-.1A1.3 1.3 0 0 1 7 5a1 1 0 0 1-.2-.5V3.4zm.2 8.8l.9-.7a5 5 0 0 0 .4-.4 3.4 3.4 0 0 0 .8-2.7 4 4 0 0 0 0-.5h10.5a3.9 3.9 0 0 0-.1.7 3.6 3.6 0 0 0 1.2 2.9l.9.7a16.8 16.8 0 0 1 3 3.2.2.2 0 0 0 .1 0 8.9 8.9 0 0 1 .6 1 8 8 0 0 1 .5 1.1v.1a8.2 8.2 0 0 1 .3 1.3 10.2 10.2 0 0 1 .1 1.5v5.2c-4.7-1.5-8.3-.7-12.5 1a13 13 0 0 1-11.4 0v-6.2C2.3 16 4.8 14 7 12.2zM2.3 54.6V29A16.7 16.7 0 0 0 8 30.2a16.5 16.5 0 0 0 6.6-1.5c4.7-2 7.7-2.2 11.6-.7v26.6a3 3 0 0 1 0 .8H26a3.2 3.2 0 0 1-.3.8 3.2 3.2 0 0 1-1.3 1.1l-.3.2a3.2 3.2 0 0 1-1.2.2H5.5a3.2 3.2 0 0 1-3.2-3.1zm42.4 3.1H27.5a5.8 5.8 0 0 0 .3-.5l.2-.3.1-.5a5 5 0 0 0 .2-.5l.1-.3a5.2 5.2 0 0 0 .1-1V20.4a12.2 12.2 0 0 0-.1-1.6v-.2l-.1-.5a17.3 17.3 0 0 1 6.5 1.5 35.7 35.7 0 0 0 3.7 1.2 14 14 0 0 0 3.5.5 17.5 17.5 0 0 0 5.9-1.1v4.7H35.3v23.8H48v5.9a3.2 3.2 0 0 1-3.2 3.1z"/></symbol>
  <symbol id="fact4" viewBox="0 0 60 55.6"><path fill="#7fcdc7" fill-rule="evenodd" d="M60 16.6C59 7 52.1 0 43.6 0a16.2 16.2 0 0 0-13.8 8 15.6 15.6 0 0 0-13.5-8C7.8 0 1 7 0 16.6a17 17 0 0 0 .5 6.3A27 27 0 0 0 9 36.7l21 18.9 21.2-19A27 27 0 0 0 59.4 23a17 17 0 0 0 .5-6.4zm-2.8 5.7A24.7 24.7 0 0 1 49.6 35L29.9 52.5 10.5 35a24.6 24.6 0 0 1-7.6-12.7 14.9 14.9 0 0 1-.5-5.4v-.1C3.2 8.4 9 2.3 16.4 2.3a13.5 13.5 0 0 1 12.4 8.6l1 2.5L31 11a14 14 0 0 1 12.8-8.6c7.3 0 13.2 6 14 14.6a14.9 14.9 0 0 1-.5 5.4zM18.5 7A11.5 11.5 0 0 0 6.9 18.5a1.2 1.2 0 0 0 2.3 0 9.2 9.2 0 0 1 9.3-9.2 1.2 1.2 0 1 0 0-2.3z"/></symbol>
  <symbol id="fact5" viewBox="0 0 57.8 60"><path fill="#7fcdc7" fill-rule="evenodd" d="M31 22.2l3.7 2.1a1 1 0 0 0 .5.2 1 1 0 0 0 .5-1.8L32 20.5a1 1 0 1 0-1 1.7zM20 26.9a1 1 0 0 0-1 1v4.3a1 1 0 0 0 2 0v-4.3a1 1 0 0 0-1-1zm14.6 8.8L31 37.8a1 1 0 0 0 .5 1.8 1 1 0 0 0 .4-.1l3.8-2.2a1 1 0 0 0 .4-1.3 1 1 0 0 0-1.4-.3zM54.3 41a3.6 3.6 0 0 0-2.5 1l-6.7-3.9a3.5 3.5 0 0 0 0-.8 3.5 3.5 0 0 0-2.5-3.4v-7.8a3.5 3.5 0 0 0 2.6-3.3 3.4 3.4 0 0 0-.1-.9l6.7-3.9a3.5 3.5 0 1 0-1-1.6l-6.7 3.8a3.6 3.6 0 0 0-2.5-1 3.5 3.5 0 0 0-2.4 1l-6.8-3.8a3.5 3.5 0 0 0-2.5-4.3V1a1 1 0 0 0-2 0V12a3.5 3.5 0 0 0-2.4 4.3l-6.8 3.8a3.6 3.6 0 0 0-5 0L7 16.4A3.6 3.6 0 1 0 6 18l6.8 3.9a3.4 3.4 0 0 0-.1.9 3.5 3.5 0 0 0 2.6 3.3V34a3.5 3.5 0 0 0-2.6 3.4 3.4 3.4 0 0 0 .1.8l-6.8 4a3.6 3.6 0 0 0-2.5-1 3.5 3.5 0 1 0 3.6 3.4 3.4 3.4 0 0 0-.1-.8l6.8-3.9a3.6 3.6 0 0 0 4.9 0l6.8 3.9a3.5 3.5 0 0 0-.1.8A3.5 3.5 0 0 0 28 48v11.2a1 1 0 0 0 1.9 0V47.9a3.5 3.5 0 0 0 2.6-3.4 3.5 3.5 0 0 0-.1-.8l6.8-3.9a3.5 3.5 0 0 0 2.4 1 3.6 3.6 0 0 0 2.5-1l6.8 3.9a3.5 3.5 0 1 0 3.4-2.7zm0-27.1a1.6 1.6 0 1 1-1.6 1.6 1.6 1.6 0 0 1 1.6-1.6zM3.5 17.1a1.6 1.6 0 1 1 1.7-1.6 1.6 1.6 0 0 1-1.7 1.6zm0 29a1.6 1.6 0 1 1 1.7-1.6 1.6 1.6 0 0 1-1.7 1.6zm38.1-25a1.6 1.6 0 1 1-1.6 1.7 1.6 1.6 0 0 1 1.6-1.6zM29 14a1.6 1.6 0 1 1-1.6 1.6 1.6 1.6 0 0 1 1.6-1.6zm-14.3 8.9a1.6 1.6 0 1 1 1.6 1.5 1.6 1.6 0 0 1-1.6-1.5zm1.6 16a1.6 1.6 0 1 1 1.6-1.5 1.6 1.6 0 0 1-1.6 1.6zM29 46.2a1.6 1.6 0 1 1 1.6-1.6 1.6 1.6 0 0 1-1.6 1.6zm9.2-8.8a3.5 3.5 0 0 0 0 .8l-6.7 4a3.6 3.6 0 0 0-5 0l-6.7-4a3.4 3.4 0 0 0 0-.8 3.5 3.5 0 0 0-2.5-3.4v-7.8a3.5 3.5 0 0 0 2.6-3.3 3.4 3.4 0 0 0-.1-.9l6.8-3.9a3.5 3.5 0 0 0 4.9 0l6.8 3.9a3.4 3.4 0 0 0-.1.9 3.5 3.5 0 0 0 2.6 3.3V34a3.5 3.5 0 0 0-2.6 3.4zm3.5 1.6a1.6 1.6 0 1 1 1.6-1.6 1.6 1.6 0 0 1-1.6 1.6zM54.3 46a1.6 1.6 0 1 1 1.6-1.6 1.6 1.6 0 0 1-1.6 1.6z"/></symbol>
  <symbol id="fact6" viewBox="0 0 57 60"><path fill="#7fcdc7" fill-rule="evenodd" d="M56.8 43a1.1 1.1 0 0 0-.7-.5s-6.4-1.5-14.5-2.6c-3.6-8.4-4.8-8.4-5.5-8.4-.7 0-4.5.8-7.6 1.4v-8h.1a12.6 12.6 0 0 0 3.2.4A12.4 12.4 0 0 0 43.6 9.1a1.1 1.1 0 0 0-.7-.7 12.4 12.4 0 0 0-12.5 3 12.2 12.2 0 0 0-1.4 1.7A15 15 0 0 0 9.6.7a1.1 1.1 0 0 0-.7.7A15 15 0 0 0 23.2 21a15.2 15.2 0 0 0 3-.3v12.8l-1 .2c-2.3-.4-6.1-.9-7.4.4l-2 2-3 1c-3.7 1.2-5 6.7-5.1 7.4A24.5 24.5 0 0 1 4 41.6a1.1 1.1 0 0 0-.7-.3C.8 41.3 0 42.5 0 43.5c0 .4 0 1 2.3 3.6a54 54 0 0 0 5.3 5.4c4 3.4 9.8 7.5 15.4 7.5a47 47 0 0 0 14.3-2.3 18 18 0 0 1 4.3-1 82.9 82.9 0 0 0 10-1.1 1 1 0 0 0 .9-.7l4.4-11a1.1 1.1 0 0 0 0-.9zM32 13a5.7 5.7 0 1 1-1.8 10c.9-1.5 2.1-3.2 3.1-3.7a1.1 1.1 0 0 0-1-2 10.4 10.4 0 0 0-3.3 3.5 10.2 10.2 0 0 1 3-7.8zm-10.7-.4c2.9 2 3.9 6 4 6a7.5 7.5 0 1 1 1.6-2 12.6 12.6 0 0 0-4.4-5.8 1.1 1.1 0 0 0-1.2 1.8zM9.8 45c.3-1.4 1.5-5 3.7-5.8l3.3-1.1a1 1 0 0 0 .4-.3l2.2-2.1c.5-.4 3.2-.2 5.6.2a1.1 1.1 0 0 0 .4 0c4.4-1 9.2-2 10.5-2.1a34 34 0 0 1 3.1 5.9 147 147 0 0 0-3.8-.4C24.2 38 18 39 16.5 42a1.8 1.8 0 0 0 0 1.7c1 1.5 4.2 2 12 2 1 0 1.6.3 1.7.6a.9.9 0 0 1-.3.8 23 23 0 0 1-9.5 1 28.7 28.7 0 0 1-10.8-2.7 1.1 1.1 0 0 0 .2-.5zm40.9 8.6a77.9 77.9 0 0 1-9 1 18.6 18.6 0 0 0-5 1A45.6 45.6 0 0 1 23 57.9c-4.7 0-10-3.6-13.5-6.6a44.3 44.3 0 0 1-7.1-7.5 3.5 3.5 0 0 1 .5-.1 29 29 0 0 0 17.7 6.8c5 .2 9.8-.7 10.8-1.7a3 3 0 0 0 .8-3.3c-.3-.7-1.2-1.9-3.7-1.9-6.9 0-9.1-.4-9.8-.8.7-.8 3.6-2.6 16.2-1.4 8.5.9 16.5 2.4 19.5 3z"/></symbol>
  <symbol id="decor" viewBox="0 0 35 9"><path d="M32.6 8.3c-3.7 2.3-11.8-1.4-11.8-1.6l-.4-.2L9 1.8A25.3 25.3 0 0 0 5 .8c.1 0 0 .1 0 0a5.9 5.9 0 0 0-2.2.5c-4.3 3-1.5 5.7-1.4 6C4.2 10 6.9 7 6.9 7c1 0 .5.7.5.8-2.6 2.8-6.3 0-6.4 0a4.6 4.6 0 0 1 1.4-7c3.7-2.3 11.8 1.5 11.8 1.5l.4.2L26 7.2a23.2 23.2 0 0 0 3.9 1s0-.1 0 0a6.7 6.7 0 0 0 2.2-.5c4.3-2.9 1.5-5.7 1.4-6-2.7-2.8-5.4.3-5.4.3-1 .1-.5-.7-.5-.7 2.6-2.9 6.3 0 6.3 0a4.6 4.6 0 0 1-1.3 7z"/></symbol>
  <symbol id="select_caret" viewBox="0 0 16 24.7"><path d="M14.5 15L8 22.4 1.5 15a.8.8 0 0 0-1.2 0 1 1 0 0 0 0 1.2l7 8.2a.8.8 0 0 0 1.3 0l7.2-8.2a1 1 0 0 0 0-1.3.8.8 0 0 0-1.3 0zm-13-5.3L8 2.2l6.5 7.5a.8.8 0 0 0 1.2 0 1 1 0 0 0 0-1.2L8.8.3a.8.8 0 0 0-1.3 0L.2 8.5a1 1 0 0 0 0 1.3.8.8 0 0 0 1.3 0z" data-name="Down arrow копия 2"/></symbol>
  <symbol id="check" viewBox="0 0 18 13"><path d="M17.7 1.7l-11 11c-.2.2-.4.3-.7.3s-.5-.1-.7-.3l-5-5a1 1 0 0 1 0-1.4 1 1 0 0 1 1.4 0L6 10.6 16.3.3a1 1 0 0 1 1.4 0c.4.4.4 1 0 1.4z"/></symbol>
  <symbol id="facebook" viewBox="0 0 50.2 50"><path fill="#fff" fill-rule="evenodd" d="M36.7 0H13.5A13.5 13.5 0 0 0 0 13.5v23A13.5 13.5 0 0 0 13.5 50h12V31.8h-3.6v-6h3.6v-5.1c0-1-.1-7 7.8-7h5.5V20h-4a1.8 1.8 0 0 0-1.7 1.4v4.3h5.7c-.2 3.2-.7 6-.7 6h-5V50h3.6a13.5 13.5 0 0 0 13.5-13.5v-23A13.5 13.5 0 0 0 36.7 0z"/></symbol>
  <symbol id="twitter" viewBox="0 0 50.2 50"><path fill="#fff" fill-rule="evenodd" d="M36.7 0H13.5A13.5 13.5 0 0 0 0 13.5v23A13.5 13.5 0 0 0 13.5 50h23.2a13.5 13.5 0 0 0 13.5-13.5v-23A13.5 13.5 0 0 0 36.7 0zm.6 19.6v.7a16.3 16.3 0 0 1-25 13.6l1.4.1a11.5 11.5 0 0 0 7-2.4 5.7 5.7 0 0 1-5.2-4 5.5 5.5 0 0 0 1 .1 5.6 5.6 0 0 0 1.5-.2 5.7 5.7 0 0 1-4.6-5.5v-.1a5.8 5.8 0 0 0 2.6.7 5.7 5.7 0 0 1-1.7-7.6A16.2 16.2 0 0 0 26 21a5.7 5.7 0 0 1 5.5-7 5.7 5.7 0 0 1 4.2 1.8 11.2 11.2 0 0 0 3.6-1.4 5.7 5.7 0 0 1-2.5 3.1 11.7 11.7 0 0 0 3.3-.9 11 11 0 0 1-2.9 3z"/></symbol>
  <symbol id="instagram" viewBox="0 0 50.2 50"><path fill="#fff" fill-rule="evenodd" d="M25.1 22.6a1.9 1.9 0 1 0 1.9 1.9 1.9 1.9 0 0 0-1.9-1.9zM36.7 0H13.5A13.5 13.5 0 0 0 0 13.5v23A13.5 13.5 0 0 0 13.5 50h23.2a13.5 13.5 0 0 0 13.5-13.5v-23A13.5 13.5 0 0 0 36.7 0zm0 31.3a5.2 5.2 0 0 1-5.1 5.3H19.2c-3.6 0-5.8-1.9-5.8-5.2V19.3c0-3.5 2.1-6 5.2-6H32c2.3 0 4.8 2.3 4.8 5.8v12.2zm-6.4-9.6a5.8 5.8 0 0 1 .7 2.8 6 6 0 1 1-11-2.8h-5.6v9.6c0 3.6 2.6 4.3 4.8 4.3h12.4a4.2 4.2 0 0 0 4.2-4.3v-9.6h-5.5zm-5.2-2.1a5 5 0 1 0 5 4.9 5 5 0 0 0-5-5zm0 8.6a3.7 3.7 0 1 1 3.7-3.7 3.7 3.7 0 0 1-3.7 3.7zm7-13.8H19.8a.6.6 0 0 1 0 .1v4.7a.5.5 0 0 1-.5.5.5.5 0 0 1-.5-.5v-4.7-.1h-.6a.5.5 0 0 1 0 .1v4.7a.5.5 0 0 1-1 0v-4.6a4.6 4.6 0 0 0-.7.2v4.4a.5.5 0 0 1-1 0v-3.6a5.6 5.6 0 0 0-1.2 3.7v1.4h6.2a6 6 0 0 1 4.5-2.1 6.1 6.1 0 0 1 4.5 2h6.2v-1.5c0-2.9-2-4.7-3.8-4.7zm1.5 4a1 1 0 0 1-1.1 1h-1.6a1 1 0 0 1-1-1v-1.6a1 1 0 0 1 1-1h1.6a1 1 0 0 1 1 1v1.6z"/></symbol>
  <symbol id="phone" viewBox="0 0 40 40"><path fill="#eff7f7" fill-rule="evenodd" d="M34.1 5.9a20 20 0 0 0-29 27.3l.1.2a9.5 9.5 0 0 1-4 4.7.8.8 0 0 0 .1 1.4 11.4 11.4 0 0 0 8.5-2.3A20 20 0 0 0 34.2 6zm-7.5 22.7c-.4.4-1 .8-1.3 1.3a2.6 2.6 0 0 1-2.3.8 9 9 0 0 1-3.5-1 19.3 19.3 0 0 1-6.4-5 17.7 17.7 0 0 1-3.2-5.3 6.8 6.8 0 0 1-.5-2.9A2.4 2.4 0 0 1 10 15l1.5-1.4a1.4 1.4 0 0 1 2 0l1.2 1.2 1.2 1.1a1.4 1.4 0 0 1 0 2.1l-1.5 1.5a.3.3 0 0 0 0 .3 8.3 8.3 0 0 0 1.3 2.1 14.8 14.8 0 0 0 3.6 3.3l1 .5a.3.3 0 0 0 .3 0l1.5-1.5a1.4 1.4 0 0 1 2 0l2.4 2.3a1.4 1.4 0 0 1 0 2.2zm-7.4-13l.3-1.7a8 8 0 0 1 6.7 6.5l-1.8.3a6.2 6.2 0 0 0-5.2-5zm9.9 4.8a11.4 11.4 0 0 0-9.6-9.4l.2-1.8a13.2 13.2 0 0 1 11.2 10.9z"/></symbol>
  <symbol id="mail" viewBox="0 0 40 40"><path fill="#eff7f7" fill-rule="evenodd" d="M20 40a19.6 19.6 0 0 1-5.3-.7A20 20 0 0 1 5.9 34a19.9 19.9 0 0 1-3.2-4 20.2 20.2 0 0 1-2-4.8 20 20 0 0 1 0-10.6 20.2 20.2 0 0 1 2-4.8A20 20 0 0 1 10 2.7a20.1 20.1 0 0 1 4.8-2A19.6 19.6 0 0 1 20 0a19.3 19.3 0 0 1 7.8 1.6 20 20 0 0 1 10.6 10.6 20 20 0 0 1 .9 13.1 20.2 20.2 0 0 1-2 4.8 19.9 19.9 0 0 1-3.2 4 20 20 0 0 1-8.8 5.2 19.6 19.6 0 0 1-5.3.7zm9.6-28.2h-19a.7.7 0 0 0-.4.1.6.6 0 0 0-.2.5v2.2l.1.1 10 5.7a.2.2 0 0 0 .2 0l9.6-5.7a.3.3 0 0 1 .1 0 .3.3 0 0 0 .2 0 .1.1 0 0 0 .1-.2v-2a.6.6 0 0 0-.2-.6.7.7 0 0 0-.5-.1zM16 20.3a.2.2 0 0 0 0-.1V20l-5.7-3.2a.2.2 0 0 0-.2 0H10v8.7a.2.2 0 0 0 .1.1h.1zm7 .6h-.2l-2.2 1.3a.8.8 0 0 1-.8 0l-2-1.1a.2.2 0 0 0-.2 0l-7.3 6.8a.2.2 0 0 0 0 .1.2.2 0 0 0 0 .2 1.5 1.5 0 0 0 .4 0h18.7a.2.2 0 0 0 .2 0 .3.3 0 0 0 0-.2zm7.2-4.3H30l-5.4 3.2v.2c-.1 0 0 0 0 0l5.4 6a.2.2 0 0 0 .1 0h.1a.4.4 0 0 0 .1-.1v-9.1a.2.2 0 0 0-.1-.2z"/></symbol>
  <symbol id="caret" viewBox="0 0 14 8"><path d="M13.7 1.7l-6 6c-.2.2-.4.3-.7.3s-.5-.1-.7-.3l-6-6A1 1 0 0 1 .3.3a1 1 0 0 1 1.4 0L7 5.6 12.3.3a1 1 0 0 1 1.4 0c.4.4.4 1 0 1.4z"/></symbol>
</svg>